<svg width="912" height="603" viewBox="0 0 912 603" fill="none" xmlns="http://www.w3.org/2000/svg">
<path fill-rule="evenodd" clip-rule="evenodd" d="M439.704 866.144C399.773 859.932 360.323 874.428 320.324 880.189C272.166 887.125 226.21 904.31 177.557 903.898C117.318 903.388 41.6547 921.314 0.330611 877.482C-40.9327 833.714 26.1449 742.773 -15.3784 699.252C-88.7376 622.362 -238.559 648.868 -300.307 562.377C-348.112 495.416 -356.708 362.587 -287.572 317.987C-183.823 251.058 -23.2677 385.43 79.6668 317.255C150.489 270.348 47.3115 135.725 94.3821 65.0116C132.078 8.38108 220.809 -8.05887 287.595 4.88757C358.682 18.6677 387.312 123.785 458.745 135.643C540.931 149.286 582.325 101.033 658.107 135.643C725.488 166.416 679.015 291.593 716.987 355.196C753.709 416.706 887.954 447.109 906.174 516.391C924.178 584.854 890.557 576.17 870.353 644.016C851.612 706.947 842.585 775.697 801.192 826.668C760.361 876.947 702.769 922.635 638.382 929.666C568.671 937.279 508.996 876.923 439.704 866.144Z" fill="#5A9F5C"/>
</svg>
